<svg width="24" height="24" viewBox="0 0 24 24" fill="none" xmlns="http://www.w3.org/2000/svg">
<path d="M2.2959 14.8811V15.8016C2.29598 15.997 2.35054 16.1895 2.45492 16.3628C2.55931 16.5362 2.71042 16.6849 2.89541 16.7967L7.104 13.1485L5.93722 12.1371C5.906 12.1101 5.86895 12.0887 5.82816 12.074C5.78739 12.0594 5.74367 12.0518 5.69953 12.0518C5.65539 12.0518 5.61168 12.0594 5.5709 12.074C5.53012 12.0887 5.49307 12.1101 5.46185 12.1371L2.2959 14.8811Z" fill="url(#paint0_linear_152_518)"/>
<path d="M5.69868 10.9424C5.83977 10.9421 5.97953 10.966 6.10987 11.0129C6.24021 11.0597 6.35853 11.1285 6.45799 11.2151L7.89521 12.4609L10.8461 9.90308C11.1521 9.6382 11.567 9.48944 11.9995 9.48944C12.4319 9.48944 12.8468 9.6382 13.1528 9.90308L17.2559 13.4597L18.524 12.3604C18.7256 12.1861 18.9985 12.0883 19.2833 12.0883C19.568 12.0883 19.841 12.1861 20.0425 12.3604L21.7036 13.8015V7.48957C21.7036 7.27644 21.6389 7.06706 21.5158 6.88249C21.3928 6.69791 21.216 6.54465 21.0031 6.43807L12.6998 2.28254C12.4869 2.17596 12.2452 2.11984 11.9993 2.11984C11.7534 2.11984 11.5118 2.17596 11.2988 2.28254L2.99541 6.43807C2.78247 6.54465 2.60564 6.69791 2.48268 6.88249C2.35972 7.06706 2.29497 7.27644 2.29492 7.48957V13.5069L4.93891 11.215C5.03844 11.1283 5.15686 11.0595 5.28727 11.0128C5.41769 10.966 5.55754 10.942 5.69868 10.9424Z" fill="url(#paint1_linear_152_518)"/>
<path d="M18.0483 14.1473L21.1039 16.7958C21.2889 16.684 21.44 16.5352 21.5444 16.3619C21.6487 16.1887 21.7032 15.9962 21.7033 15.8008V15.1749L19.5203 13.2831C19.4573 13.2285 19.3718 13.1978 19.2826 13.1978C19.1934 13.1978 19.1079 13.2285 19.0448 13.2831L18.0483 14.1473Z" fill="url(#paint2_linear_152_518)"/>
<path d="M17.2558 14.834L16.4637 14.1475L12.3606 10.591C12.2649 10.5081 12.1352 10.4616 11.9998 10.4616C11.8645 10.4616 11.7348 10.5081 11.639 10.591L8.68816 13.1489L7.89589 13.8356L3.89551 17.3028L11.2989 21.0082C11.5119 21.1148 11.7535 21.1709 11.9994 21.1709C12.2453 21.1709 12.487 21.1148 12.6999 21.0082L20.1033 17.3028L17.2558 14.834Z" fill="url(#paint3_linear_152_518)"/>
<path d="M11.9998 1.00418C12.2745 1.00411 12.5444 1.06676 12.7822 1.18581L22.0587 5.82836C22.2966 5.94742 22.4941 6.11865 22.6314 6.32486C22.7687 6.53107 22.8411 6.76497 22.8411 7.00308V16.2882C22.8411 16.5262 22.7687 16.7601 22.6314 16.9663C22.4941 17.1725 22.2966 17.3438 22.0587 17.4628L12.7822 22.1053C12.5443 22.2244 12.2745 22.2871 11.9998 22.2871C11.7251 22.2871 11.4552 22.2244 11.2173 22.1053L1.94083 17.4628C1.70296 17.3438 1.50542 17.1725 1.36809 16.9663C1.23075 16.7601 1.15845 16.5262 1.15846 16.2882V7.00308C1.15846 6.76497 1.23075 6.53107 1.36809 6.32486C1.50543 6.11865 1.70296 5.94742 1.94083 5.82836L11.2173 1.18581C11.4552 1.06677 11.7251 1.00413 11.9998 1.00418ZM11.9998 0C11.5218 0.000161813 11.0523 0.109227 10.6382 0.316266L1.3616 4.95881C0.948137 5.16649 0.60478 5.46459 0.365844 5.82331C0.126909 6.18205 0.000759185 6.58885 0 7.00308V16.2882C0.000783615 16.7024 0.126958 17.1092 0.365914 17.4679C0.60487 17.8267 0.948243 18.1247 1.36172 18.3324L10.6382 22.975C11.0522 23.1822 11.5218 23.2911 11.9998 23.2911C12.4778 23.2911 12.9474 23.1822 13.3614 22.975L22.6379 18.3324C23.0514 18.1248 23.3949 17.8267 23.6339 17.468C23.8729 17.1092 23.9992 16.7024 24 16.2882V7.00308C23.9993 6.58885 23.8731 6.18205 23.6342 5.82332C23.3952 5.4646 23.0518 5.16649 22.6384 4.95881L13.3619 0.316266C12.9479 0.109241 12.4783 0.000176538 12.0003 0H11.9998Z" fill="url(#paint4_linear_152_518)"/>
<defs>
<linearGradient id="paint0_linear_152_518" x1="4.69995" y1="2.26767" x2="4.69995" y2="21.2475" gradientUnits="userSpaceOnUse">
<stop offset="0.004" stop-color="#4C99D4"/>
<stop offset="0.5" stop-color="#56C3E6"/>
<stop offset="1" stop-color="#B0D8BC"/>
</linearGradient>
<linearGradient id="paint1_linear_152_518" x1="11.9993" y1="2.27171" x2="11.9993" y2="21.2544" gradientUnits="userSpaceOnUse">
<stop offset="0.004" stop-color="#4C99D4"/>
<stop offset="0.5" stop-color="#56C3E6"/>
<stop offset="1" stop-color="#B0D8BC"/>
</linearGradient>
<linearGradient id="paint2_linear_152_518" x1="19.8759" y1="2.2708" x2="19.8759" y2="21.2465" gradientUnits="userSpaceOnUse">
<stop offset="0.004" stop-color="#4C99D4"/>
<stop offset="0.5" stop-color="#56C3E6"/>
<stop offset="1" stop-color="#B0D8BC"/>
</linearGradient>
<linearGradient id="paint3_linear_152_518" x1="11.9994" y1="2.26894" x2="11.9994" y2="21.2458" gradientUnits="userSpaceOnUse">
<stop offset="0.004" stop-color="#4C99D4"/>
<stop offset="0.5" stop-color="#56C3E6"/>
<stop offset="1" stop-color="#B0D8BC"/>
</linearGradient>
<linearGradient id="paint4_linear_152_518" x1="12" y1="23.2911" x2="12" y2="0" gradientUnits="userSpaceOnUse">
<stop stop-color="#B0D8BC"/>
<stop offset="0.5" stop-color="#56C3E6"/>
<stop offset="0.996" stop-color="#4C99D4"/>
</linearGradient>
</defs>
</svg>
