<svg width="24" height="23" viewBox="0 0 24 23" fill="none" xmlns="http://www.w3.org/2000/svg">
<path d="M2.29565 14.3173V15.2029C2.29574 15.3909 2.35029 15.5762 2.45468 15.7429C2.55906 15.9097 2.71017 16.0528 2.89516 16.1604L7.10376 12.6504L5.93698 11.6773C5.90576 11.6513 5.86871 11.6307 5.82792 11.6166C5.78715 11.6025 5.74343 11.5952 5.69928 11.5952C5.65514 11.5952 5.61143 11.6025 5.57066 11.6166C5.52987 11.6307 5.49282 11.6513 5.4616 11.6773L2.29565 14.3173Z" fill="url(#paint0_linear_829_35)"/>
<path d="M5.69893 10.5279C5.84002 10.5276 5.97977 10.5505 6.11011 10.5956C6.24045 10.6407 6.35877 10.7068 6.45823 10.7902L7.89545 11.9888L10.8463 9.52788C11.1524 9.27305 11.5672 9.12992 11.9997 9.12992C12.4322 9.12992 12.847 9.27305 13.1531 9.52788L17.2561 12.9497L18.5242 11.8921C18.7258 11.7244 18.9988 11.6303 19.2835 11.6303C19.5682 11.6303 19.8413 11.7244 20.0427 11.8921L21.7038 13.2786V7.20583C21.7038 7.00076 21.6391 6.79932 21.516 6.62175C21.3931 6.44416 21.2163 6.2967 21.0034 6.19417L12.7001 2.19608C12.4871 2.09354 12.2455 2.03955 11.9996 2.03955C11.7536 2.03955 11.5121 2.09354 11.2991 2.19608L2.99565 6.19417C2.78272 6.2967 2.60588 6.44416 2.48292 6.62175C2.35996 6.79932 2.29521 7.00076 2.29517 7.20583V12.9952L4.93915 10.7901C5.03868 10.7066 5.1571 10.6405 5.28751 10.5955C5.41794 10.5505 5.55778 10.5275 5.69893 10.5279Z" fill="url(#paint1_linear_829_35)"/>
<path d="M18.0483 13.6112L21.1038 16.1594C21.2889 16.0518 21.44 15.9086 21.5443 15.742C21.6487 15.5753 21.7031 15.3901 21.7032 15.2021V14.5999L19.5203 12.7798C19.4572 12.7273 19.3717 12.6978 19.2826 12.6978C19.1933 12.6978 19.1078 12.7273 19.0448 12.7798L18.0483 13.6112Z" fill="url(#paint2_linear_829_35)"/>
<path d="M17.2558 14.272L16.4637 13.6114L12.3606 10.1897C12.2649 10.1099 12.1352 10.0652 11.9998 10.0652C11.8645 10.0652 11.7348 10.1099 11.639 10.1897L8.68816 12.6507L7.89589 13.3114L3.89551 16.6472L11.2989 20.2122C11.5119 20.3147 11.7535 20.3687 11.9994 20.3687C12.2453 20.3687 12.487 20.3147 12.6999 20.2122L20.1033 16.6472L17.2558 14.272Z" fill="url(#paint3_linear_829_35)"/>
<path d="M11.9998 0.966131C12.2745 0.966069 12.5444 1.02634 12.7822 1.14088L22.0587 5.60753C22.2966 5.72208 22.4941 5.88682 22.6314 6.08522C22.7687 6.28361 22.8411 6.50865 22.8411 6.73774V15.671C22.8411 15.9001 22.7687 16.1251 22.6314 16.3235C22.4941 16.5218 22.2966 16.6866 22.0587 16.8011L12.7822 21.2678C12.5443 21.3823 12.2745 21.4426 11.9998 21.4426C11.7251 21.4426 11.4552 21.3823 11.2173 21.2678L1.94083 16.8011C1.70296 16.6866 1.50542 16.5218 1.36809 16.3235C1.23075 16.1251 1.15845 15.9001 1.15846 15.671V6.73774C1.15846 6.50865 1.23075 6.28361 1.36809 6.08522C1.50543 5.88682 1.70296 5.72208 1.94083 5.60753L11.2173 1.14088C11.4552 1.02635 11.7251 0.96608 11.9998 0.966131ZM11.9998 0C11.5218 0.000155682 11.0523 0.105089 10.6382 0.304283L1.3616 4.77093C0.948137 4.97074 0.60478 5.25754 0.365844 5.60267C0.126909 5.94782 0.000759185 6.33921 0 6.73774V15.671C0.000783615 16.0696 0.126958 16.461 0.365914 16.8061C0.60487 17.1512 0.948243 17.438 1.36172 17.6378L10.6382 22.1045C11.0522 22.3038 11.5218 22.4087 11.9998 22.4087C12.4778 22.4087 12.9474 22.3038 13.3614 22.1045L22.6379 17.6378C23.0514 17.4381 23.3949 17.1512 23.6339 16.8062C23.8729 16.461 23.9992 16.0696 24 15.671V6.73774C23.9993 6.33921 23.8731 5.94782 23.6342 5.60268C23.3952 5.25755 23.0518 4.97074 22.6384 4.77093L13.3619 0.304283C12.9479 0.105102 12.4783 0.00016985 12.0003 0H11.9998Z" fill="url(#paint4_linear_829_35)"/>
<defs>
<linearGradient id="paint0_linear_829_35" x1="4.6997" y1="2.18179" x2="4.6997" y2="20.4425" gradientUnits="userSpaceOnUse">
<stop offset="0.004" stop-color="#4C99D4"/>
<stop offset="0.5" stop-color="#56C3E6"/>
<stop offset="1" stop-color="#B0D8BC"/>
</linearGradient>
<linearGradient id="paint1_linear_829_35" x1="11.9995" y1="2.18566" x2="11.9995" y2="20.4491" gradientUnits="userSpaceOnUse">
<stop offset="0.004" stop-color="#4C99D4"/>
<stop offset="0.5" stop-color="#56C3E6"/>
<stop offset="1" stop-color="#B0D8BC"/>
</linearGradient>
<linearGradient id="paint2_linear_829_35" x1="19.8758" y1="2.18472" x2="19.8758" y2="20.4415" gradientUnits="userSpaceOnUse">
<stop offset="0.004" stop-color="#4C99D4"/>
<stop offset="0.5" stop-color="#56C3E6"/>
<stop offset="1" stop-color="#B0D8BC"/>
</linearGradient>
<linearGradient id="paint3_linear_829_35" x1="11.9994" y1="2.18297" x2="11.9994" y2="20.4408" gradientUnits="userSpaceOnUse">
<stop offset="0.004" stop-color="#4C99D4"/>
<stop offset="0.5" stop-color="#56C3E6"/>
<stop offset="1" stop-color="#B0D8BC"/>
</linearGradient>
<linearGradient id="paint4_linear_829_35" x1="12" y1="22.4087" x2="12" y2="0" gradientUnits="userSpaceOnUse">
<stop stop-color="#B0D8BC"/>
<stop offset="0.5" stop-color="#56C3E6"/>
<stop offset="0.996" stop-color="#4C99D4"/>
</linearGradient>
</defs>
</svg>
