<svg width="24" height="23" viewBox="0 0 24 23" fill="none" xmlns="http://www.w3.org/2000/svg">
<path d="M17.5886 22.4086C16.6547 22.4022 15.725 22.2927 14.8187 22.0826C11.6888 21.3775 8.46584 19.5889 5.7449 17.0461C3.02396 14.5034 1.10594 11.4936 0.350783 8.57408C-0.444366 5.50295 0.122745 2.8755 1.94586 1.17328L2.4664 0.687253C2.93869 0.247165 3.57869 0 4.24594 0C4.91319 0 5.55318 0.247165 6.02547 0.687253L9.01683 3.47969C9.48847 3.92052 9.75339 4.51813 9.75339 5.14122C9.75339 5.76431 9.48847 6.36192 9.01683 6.80275L7.24983 8.45201C8.09692 9.83987 9.24905 11.2288 10.6107 12.5002C11.9724 13.7716 13.4612 14.8479 14.947 15.6388L16.7134 13.989C16.9471 13.7707 17.2245 13.5976 17.5298 13.4795C17.8352 13.3613 18.1624 13.3005 18.493 13.3005C18.8235 13.3005 19.1507 13.3613 19.4561 13.4795C19.7614 13.5976 20.0388 13.7707 20.2725 13.989L23.2632 16.7814C23.735 17.222 24 17.8196 24 18.4426C24 19.0657 23.735 19.6632 23.2632 20.1039L22.7421 20.5899C21.4569 21.7922 19.6779 22.4086 17.5886 22.4086ZM4.24594 1.67102C4.15062 1.67057 4.05618 1.6879 3.96812 1.72197C3.88007 1.75604 3.80019 1.80618 3.73315 1.86944L3.21201 2.35547C1.84676 3.63018 1.44799 5.69971 2.08913 8.17946C2.76787 10.8064 4.51517 13.5358 7.00866 15.8634C9.50216 18.191 12.4249 19.8207 15.2389 20.4567C17.8954 21.0553 20.1107 20.683 21.476 19.4083L21.9965 18.9223C22.1325 18.7952 22.2089 18.6229 22.2089 18.4432C22.2089 18.2635 22.1325 18.0912 21.9965 17.9641L19.0063 15.1717C18.8702 15.0447 18.6857 14.9734 18.4933 14.9734C18.3008 14.9734 18.1163 15.0447 17.9802 15.1717L15.741 17.2624C15.6066 17.3879 15.433 17.4703 15.2452 17.4975C15.0573 17.5248 14.8651 17.4955 14.6963 17.414C12.8606 16.5278 11.0101 15.2375 9.34456 13.6824C7.67905 12.1273 6.30007 10.4006 5.34852 8.68667C5.26114 8.52909 5.22971 8.34965 5.2588 8.1743C5.28788 7.99894 5.37596 7.83678 5.5103 7.71126L7.75009 5.62056C7.88609 5.49347 7.96249 5.32116 7.96249 5.1415C7.96249 4.96184 7.88609 4.78953 7.75009 4.66244L4.75932 1.86944C4.69208 1.80629 4.61207 1.75623 4.52394 1.72216C4.43581 1.6881 4.34132 1.67072 4.24594 1.67102Z" fill="#4F84C9"/>
<path d="M18.5449 12.3576C18.3074 12.3576 18.0796 12.2695 17.9117 12.1127C17.7438 11.9559 17.6494 11.7432 17.6494 11.5215C17.6477 10.0548 17.0229 8.64861 15.9122 7.61143C14.8015 6.57426 13.2955 5.99078 11.7247 5.98901C11.4872 5.98901 11.2594 5.90093 11.0915 5.74414C10.9236 5.58735 10.8292 5.37469 10.8292 5.15295C10.8292 4.93122 10.9236 4.71856 11.0915 4.56177C11.2594 4.40498 11.4872 4.31689 11.7247 4.31689C15.9792 4.31689 19.4403 7.54966 19.4403 11.5215C19.4403 11.7432 19.346 11.9559 19.178 12.1127C19.0101 12.2695 18.7824 12.3576 18.5449 12.3576Z" fill="#4F84C9"/>
<path d="M22.3297 12.3572C22.0922 12.3572 21.8644 12.2691 21.6965 12.1124C21.5286 11.9556 21.4342 11.7429 21.4342 11.5212C21.4342 6.5221 17.0764 2.45495 11.7247 2.45495C11.4872 2.45495 11.2594 2.36687 11.0915 2.21008C10.9236 2.05329 10.8292 1.84063 10.8292 1.6189C10.8292 1.39716 10.9236 1.1845 11.0915 1.02771C11.2594 0.870922 11.4872 0.782837 11.7247 0.782837C18.0662 0.782837 23.2251 5.60021 23.2251 11.5212C23.2251 11.7429 23.1308 11.9556 22.9628 12.1124C22.7949 12.2691 22.5671 12.3572 22.3297 12.3572Z" fill="#4F84C9"/>
</svg>
